<svg xmlns="http://www.w3.org/2000/svg" viewBox="0 0 64 64" width="128" height="128"><path fill="#ace3ff" d="M7 17L32 3l26 14-26 14zm-1 0v30l26 15V31z"/><path fill="#7bbeeb" d="M17 23l15-8 15 8-15 8z"/><path fill="#ace3ff" d="M32 62l27-15V17L32 31z"/><path fill="#7bbeeb" d="M17 23v18l15 8V31zm15 26l15-8V23l-15 8z"/><path fill="#e3f2ff" d="M17 41L6 47V17l11 6z"/><path fill="#8d6c9f" d="M32 32c-.162 0-.324-.039-.471-.117l-15-8a1.003 1.003 0 010-1.766l15-8c.294-.156.647-.156.941 0l15 8a1.002 1.002 0 01.001 1.766l-15 8A1.005 1.005 0 0132 32zm-12.875-9L32 29.866 44.875 23 32 16.134 19.125 23z"/><path fill="#8d6c9f" d="M17 27a1 1 0 01-1-1v-2.406L5.521 17.878a1 1 0 01.005-1.759l26-14a1 1 0 01.948 1.761L8.099 17.006l9.38 5.116A1 1 0 0118 23v3a1 1 0 01-1 1zm0 8a1 1 0 01-1-1v-4a1 1 0 112 0v4a1 1 0 01-1 1zm15 15c-.162 0-.323-.039-.471-.117l-15-8A1.003 1.003 0 0116 41v-3a1 1 0 112 0v2.4l13 6.933V31a1 1 0 112 0v18a.997.997 0 01-1 1z"/><path fill="#85cbf8" d="M59 47L32 61V49l15-8z"/><path fill="#8d6c9f" d="M32 63a1 1 0 01-1-1V49a1 1 0 112 0v11.301l25.514-14.175a.999.999 0 11.972 1.748l-27 15A1.003 1.003 0 0132 63zm15-21a1 1 0 01-1-1V23c0-.379.214-.725.553-.895l10.244-5.122L33 4.645V15a1 1 0 11-2 0V3a.998.998 0 011.46-.887l27 14a1.002 1.002 0 01-.013 1.783L48 23.618V41a1 1 0 01-1 1zm-2.861 2.66a1 1 0 01-.883-.529l-.941-1.765a1 1 0 111.764-.942l.941 1.765a1 1 0 01-.881 1.471zm-4.167 2.223c-.357 0-.703-.192-.884-.529l-.941-1.766a1.002 1.002 0 011.766-.942l.941 1.766a1.002 1.002 0 01-.882 1.471z"/><path fill="#8d6c9f" d="M35.805 49.104a1 1 0 01-.883-.529l-.942-1.765a1 1 0 111.765-.942l.941 1.765a1 1 0 01-.881 1.471zM59 48c-.153 0-.306-.035-.447-.105l-12-6a1 1 0 01.895-1.789L58 45.382V17a1 1 0 112 0v30a1.003 1.003 0 01-1 1zM6 48a1 1 0 01-1-1V17a1 1 0 112 0v28.315l9.521-5.193a1 1 0 01.958 1.755l-11 6A.993.993 0 016 48z"/><path fill="#8d6c9f" d="M31.999 63a.997.997 0 01-.499-.134l-26-15a1 1 0 011-1.732l26 15A1 1 0 0131.999 63z"/></svg>